<?xml version="1.0" encoding="utf-8"?>
<!-- Generator: Adobe Illustrator 27.0.1, SVG Export Plug-In . SVG Version: 6.00 Build 0)  -->
<svg version="1.1" id="Layer_1" xmlns="http://www.w3.org/2000/svg" xmlns:xlink="http://www.w3.org/1999/xlink" x="0px" y="0px"
	 viewBox="0 0 113 113" style="enable-background:new 0 0 113 113;" xml:space="preserve">
<style type="text/css">
	.st0{fill:#FFFFFF;}
</style>
<path shape-rendering="crispEdges" class="st0" d="M0,0h113v113H0V0z"/>
<path shape-rendering="crispEdges" d="M0,0h27.3v3.9H0V0z M42.9,0h3.9v3.9h-3.9V0z M58.4,0h7.8v3.9h-7.8V0z M74,0h7.8v3.9H74V0z
	 M85.7,0H113v3.9H85.7V0z M0,3.9h3.9v3.9H0V3.9z M23.4,3.9h3.9v3.9h-3.9V3.9z M35.1,3.9H39v3.9h-3.9V3.9z M46.8,3.9h3.9v3.9h-3.9
	V3.9z M66.2,3.9H74v3.9h-7.8V3.9z M77.9,3.9h3.9v3.9h-3.9V3.9z M85.7,3.9h3.9v3.9h-3.9V3.9z M109.1,3.9h3.9v3.9h-3.9V3.9z M0,7.8
	h3.9v3.9H0V7.8z M7.8,7.8h11.7v3.9H7.8V7.8z M23.4,7.8h3.9v3.9h-3.9V7.8z M31.2,7.8h19.5v3.9H31.2V7.8z M54.6,7.8h3.9v3.9h-3.9V7.8z
	 M62.3,7.8h3.9v3.9h-3.9V7.8z M74,7.8h7.8v3.9H74V7.8z M85.7,7.8h3.9v3.9h-3.9V7.8z M93.5,7.8h11.7v3.9H93.5V7.8z M109.1,7.8h3.9
	v3.9h-3.9V7.8z M0,11.7h3.9v3.9H0V11.7z M7.8,11.7h11.7v3.9H7.8V11.7z M23.4,11.7h3.9v3.9h-3.9V11.7z M31.2,11.7h15.6v3.9H31.2V11.7
	z M66.2,11.7h3.9v3.9h-3.9V11.7z M74,11.7h3.9v3.9H74V11.7z M85.7,11.7h3.9v3.9h-3.9V11.7z M93.5,11.7h11.7v3.9H93.5V11.7z
	 M109.1,11.7h3.9v3.9h-3.9V11.7z M0,15.6h3.9v3.9H0V15.6z M7.8,15.6h11.7v3.9H7.8V15.6z M23.4,15.6h3.9v3.9h-3.9V15.6z M31.2,15.6
	h3.9v3.9h-3.9V15.6z M39,15.6h3.9v3.9H39V15.6z M50.7,15.6h11.7v3.9H50.7V15.6z M70.1,15.6h11.7v3.9H70.1V15.6z M85.7,15.6h3.9v3.9
	h-3.9V15.6z M93.5,15.6h11.7v3.9H93.5V15.6z M109.1,15.6h3.9v3.9h-3.9V15.6z M0,19.5h3.9v3.9H0V19.5z M23.4,19.5h3.9v3.9h-3.9V19.5z
	 M31.2,19.5H39v3.9h-7.8V19.5z M42.9,19.5h3.9v3.9h-3.9V19.5z M50.7,19.5h15.6v3.9H50.7V19.5z M85.7,19.5h3.9v3.9h-3.9V19.5z
	 M109.1,19.5h3.9v3.9h-3.9V19.5z M0,23.4h27.3v3.9H0V23.4z M31.2,23.4h3.9v3.9h-3.9V23.4z M39,23.4h3.9v3.9H39V23.4z M46.8,23.4h3.9
	v3.9h-3.9V23.4z M54.6,23.4h3.9v3.9h-3.9V23.4z M62.3,23.4h3.9v3.9h-3.9V23.4z M70.1,23.4H74v3.9h-3.9V23.4z M77.9,23.4h3.9v3.9
	h-3.9V23.4z M85.7,23.4H113v3.9H85.7V23.4z M31.2,27.3h11.7v3.9H31.2V27.3z M46.8,27.3h7.8v3.9h-7.8V27.3z M62.3,27.3h3.9v3.9h-3.9
	V27.3z M77.9,27.3h3.9v3.9h-3.9V27.3z M0,31.2h3.9v3.9H0V31.2z M7.8,31.2h19.5v3.9H7.8V31.2z M39,31.2h7.8v3.9H39V31.2z M54.6,31.2
	h3.9v3.9h-3.9V31.2z M66.2,31.2h3.9v3.9h-3.9V31.2z M77.9,31.2h3.9v3.9h-3.9V31.2z M85.7,31.2h19.5v3.9H85.7V31.2z M0,35.1h3.9V39H0
	V35.1z M11.7,35.1h7.8V39h-7.8V35.1z M31.2,35.1h11.7V39H31.2V35.1z M46.8,35.1h3.9V39h-3.9V35.1z M70.1,35.1h27.3V39H70.1V35.1z
	 M109.1,35.1h3.9V39h-3.9V35.1z M3.9,39h23.4v3.9H3.9V39z M31.2,39h15.6v3.9H31.2V39z M58.4,39h7.8v3.9h-7.8V39z M77.9,39h3.9v3.9
	h-3.9V39z M85.7,39h3.9v3.9h-3.9V39z M0,42.9h19.5v3.9H0V42.9z M35.1,42.9h7.8v3.9h-7.8V42.9z M54.6,42.9h11.7v3.9H54.6V42.9z
	 M74,42.9h11.7v3.9H74V42.9z M89.6,42.9h3.9v3.9h-3.9V42.9z M97.4,42.9h3.9v3.9h-3.9V42.9z M105.2,42.9h3.9v3.9h-3.9V42.9z M0,46.8
	h3.9v3.9H0V46.8z M7.8,46.8h27.3v3.9H7.8V46.8z M39,46.8h7.8v3.9H39V46.8z M66.2,46.8h3.9v3.9h-3.9V46.8z M97.4,46.8h7.8v3.9h-7.8
	V46.8z M3.9,50.7h3.9v3.9H3.9V50.7z M15.6,50.7h7.8v3.9h-7.8V50.7z M31.2,50.7h11.7v3.9H31.2V50.7z M50.7,50.7h7.8v3.9h-7.8V50.7z
	 M62.3,50.7h27.3v3.9H62.3V50.7z M93.5,50.7h3.9v3.9h-3.9V50.7z M109.1,50.7h3.9v3.9h-3.9V50.7z M7.8,54.6h3.9v3.9H7.8V54.6z
	 M23.4,54.6h11.7v3.9H23.4V54.6z M42.9,54.6h23.4v3.9H42.9V54.6z M89.6,54.6h3.9v3.9h-3.9V54.6z M97.4,54.6h7.8v3.9h-7.8V54.6z
	 M3.9,58.4h3.9v3.9H3.9V58.4z M11.7,58.4h7.8v3.9h-7.8V58.4z M31.2,58.4H39v3.9h-7.8V58.4z M42.9,58.4h11.7v3.9H42.9V58.4z
	 M62.3,58.4h3.9v3.9h-3.9V58.4z M70.1,58.4h11.7v3.9H70.1V58.4z M89.6,58.4h7.8v3.9h-7.8V58.4z M105.2,58.4h3.9v3.9h-3.9V58.4z
	 M0,62.3h3.9v3.9H0V62.3z M7.8,62.3h3.9v3.9H7.8V62.3z M15.6,62.3h3.9v3.9h-3.9V62.3z M23.4,62.3h3.9v3.9h-3.9V62.3z M35.1,62.3
	h15.6v3.9H35.1V62.3z M54.6,62.3h3.9v3.9h-3.9V62.3z M66.2,62.3h3.9v3.9h-3.9V62.3z M74,62.3h3.9v3.9H74V62.3z M89.6,62.3h3.9v3.9
	h-3.9V62.3z M97.4,62.3h7.8v3.9h-7.8V62.3z M0,66.2h3.9v3.9H0V66.2z M7.8,66.2h7.8v3.9H7.8V66.2z M19.5,66.2h3.9v3.9h-3.9V66.2z
	 M27.3,66.2h3.9v3.9h-3.9V66.2z M42.9,66.2h7.8v3.9h-7.8V66.2z M62.3,66.2h3.9v3.9h-3.9V66.2z M70.1,66.2h27.3v3.9H70.1V66.2z
	 M101.3,66.2h3.9v3.9h-3.9V66.2z M109.1,66.2h3.9v3.9h-3.9V66.2z M0,70.1h3.9V74H0V70.1z M11.7,70.1h3.9V74h-3.9V70.1z M23.4,70.1
	h19.5V74H23.4V70.1z M46.8,70.1h3.9V74h-3.9V70.1z M58.4,70.1h7.8V74h-7.8V70.1z M77.9,70.1h7.8V74h-7.8V70.1z M89.6,70.1h3.9V74
	h-3.9V70.1z M101.3,70.1h3.9V74h-3.9V70.1z M0,74h3.9v3.9H0V74z M7.8,74h3.9v3.9H7.8V74z M15.6,74h7.8v3.9h-7.8V74z M27.3,74H39v3.9
	H27.3V74z M42.9,74h7.8v3.9h-7.8V74z M54.6,74h3.9v3.9h-3.9V74z M89.6,74h7.8v3.9h-7.8V74z M105.2,74h3.9v3.9h-3.9V74z M0,77.9h3.9
	v3.9H0V77.9z M7.8,77.9h7.8v3.9H7.8V77.9z M19.5,77.9h7.8v3.9h-7.8V77.9z M31.2,77.9h3.9v3.9h-3.9V77.9z M42.9,77.9h3.9v3.9h-3.9
	V77.9z M58.4,77.9h3.9v3.9h-3.9V77.9z M66.2,77.9h3.9v3.9h-3.9V77.9z M74,77.9h23.4v3.9H74V77.9z M101.3,77.9H113v3.9h-11.7V77.9z
	 M31.2,81.8h3.9v3.9h-3.9V81.8z M39,81.8h19.5v3.9H39V81.8z M62.3,81.8H74v3.9H62.3V81.8z M77.9,81.8h3.9v3.9h-3.9V81.8z M93.5,81.8
	H113v3.9H93.5V81.8z M0,85.7h27.3v3.9H0V85.7z M39,85.7h7.8v3.9H39V85.7z M50.7,85.7h11.7v3.9H50.7V85.7z M74,85.7h7.8v3.9H74V85.7z
	 M85.7,85.7h3.9v3.9h-3.9V85.7z M93.5,85.7h11.7v3.9H93.5V85.7z M0,89.6h3.9v3.9H0V89.6z M23.4,89.6h3.9v3.9h-3.9V89.6z M31.2,89.6
	h3.9v3.9h-3.9V89.6z M39,89.6h7.8v3.9H39V89.6z M50.7,89.6h3.9v3.9h-3.9V89.6z M62.3,89.6h3.9v3.9h-3.9V89.6z M74,89.6h7.8v3.9H74
	V89.6z M93.5,89.6h3.9v3.9h-3.9V89.6z M109.1,89.6h3.9v3.9h-3.9V89.6z M0,93.5h3.9v3.9H0V93.5z M7.8,93.5h11.7v3.9H7.8V93.5z
	 M23.4,93.5h3.9v3.9h-3.9V93.5z M31.2,93.5h3.9v3.9h-3.9V93.5z M54.6,93.5h3.9v3.9h-3.9V93.5z M66.2,93.5h3.9v3.9h-3.9V93.5z
	 M77.9,93.5h19.5v3.9H77.9V93.5z M101.3,93.5h7.8v3.9h-7.8V93.5z M0,97.4h3.9v3.9H0V97.4z M7.8,97.4h11.7v3.9H7.8V97.4z M23.4,97.4
	h3.9v3.9h-3.9V97.4z M31.2,97.4h15.6v3.9H31.2V97.4z M66.2,97.4H74v3.9h-7.8V97.4z M77.9,97.4h3.9v3.9h-3.9V97.4z M89.6,97.4h3.9
	v3.9h-3.9V97.4z M97.4,97.4H113v3.9H97.4V97.4z M0,101.3h3.9v3.9H0V101.3z M7.8,101.3h11.7v3.9H7.8V101.3z M23.4,101.3h3.9v3.9h-3.9
	V101.3z M31.2,101.3h3.9v3.9h-3.9V101.3z M39,101.3h7.8v3.9H39V101.3z M54.6,101.3h7.8v3.9h-7.8V101.3z M66.2,101.3h3.9v3.9h-3.9
	V101.3z M74,101.3h7.8v3.9H74V101.3z M85.7,101.3h23.4v3.9H85.7V101.3z M0,105.2h3.9v3.9H0V105.2z M23.4,105.2h3.9v3.9h-3.9V105.2z
	 M35.1,105.2h7.8v3.9h-7.8V105.2z M54.6,105.2h3.9v3.9h-3.9V105.2z M62.3,105.2h3.9v3.9h-3.9V105.2z M77.9,105.2h7.8v3.9h-7.8V105.2
	z M89.6,105.2h3.9v3.9h-3.9V105.2z M97.4,105.2h3.9v3.9h-3.9V105.2z M105.2,105.2h3.9v3.9h-3.9V105.2z M0,109.1h27.3v3.9H0V109.1z
	 M31.2,109.1H39v3.9h-7.8V109.1z M46.8,109.1h3.9v3.9h-3.9V109.1z M66.2,109.1h3.9v3.9h-3.9V109.1z M74,109.1h3.9v3.9H74V109.1z
	 M81.8,109.1h23.4v3.9H81.8V109.1z"/>
</svg>
